# xmcd
#
# Track frame offsets: 
#        182
#        22477
#        46575
#        62257
#        103530
#        115470
#        130715
#        148657
#        164910
#        179460
#        195562
#        210360
#        238860
#        265252
#        287595
#        304777
#        331745
#
# Disc length: 4568 seconds
#
# Revision: 2
# Processed by: cddbd v1.5.2PL0 Copyright (c) Steve Scherf et al.
# Submitted via: ExactAudioCopyFreeDBPlugin 1.0
#
DISCID=f811d611
DTITLE=Various Artist - Le disque du routard
DYEAR=1900
DGENRE=
TTITLE0="On the road again" Canned Heat
TTITLE1="Mannish boy" Muddy Waters
TTITLE2="Born to be wild" Steppenwolf
TTITLE3="Roadhouse blues" Blue Oyster Cult
TTITLE4="Indios de Barcelona" Mano Negra
TTITLE5="Spanish Bombs" The Clash
TTITLE6="Mayan Skies" The Stranglers
TTITLE7="Eight miles high" The Byrds
TTITLE8="Amsterdam" John Cale
TTITLE9="Get up, Stand up" Peter Tosh
TTITLE10="I am going home" Bob Marley and the Wailers
TTITLE11="African Reggea" Nina Hagen
TTITLE12="Walk like an egyptian" Bangles
TTITLE13="Africa" Toto
TTITLE14="Suzanne" Leonard Cohen
TTITLE15="Blues for Salvador" Carlos Santana
TTITLE16="Shapes of things" The Yardbirds
EXTD=
EXTT0=
EXTT1=
EXTT2=
EXTT3=
EXTT4=
EXTT5=
EXTT6=
EXTT7=
EXTT8=
EXTT9=
EXTT10=
EXTT11=
EXTT12=
EXTT13=
EXTT14=
EXTT15=
EXTT16=
PLAYORDER=
